# xmcd
#
# Track frame offsets:
#	150
#	13752
#	31291
#	45043
#	58730
#	74282
#	92457
#	113694
#	130185
#	152553
#	177256
#	199753
#	215797
#	237504
#	261921
#
# Disc length: 3709 seconds
#
# Revision: 0
# Processed by: cddbd v1.5.2PL0 Copyright (c) Steve Scherf et al.
# Submitted via: EZCDAudioConverter 1.3.4.1
#
DISCID=ca0e7b0f
DTITLE=Various Artist - The World Ends 1/2
DYEAR=1900
DGENRE=
TTITLE0=Ify Jerry Krusade  - Nwantinti - Die Die
TTITLE1=The Hygrades  - Rough Rider
TTITLE2=The Hykkers - Deiyo Deiyo (Akpuwunlobi)
TTITLE3=Wrinkar Experience - Soundway
TTITLE4=The Funkees  - Breakthrough
TTITLE5=The Mebusas - Mr. Bull Dog [Original 45 Version]
TTITLE6=The Foundars 15 - Don't Take Me For A Ride
TTITLE7=The Ceejebs - Eti Ufok
TTITLE8=Tony Grey Super 7  - Yem Efe
TTITLE9=The Identicals - Akwa Kayi Ji Bia Nuwa
TTITLE10=P.R.O. (People Rock Outfit) - Blacky Joe
TTITLE11=Cicada - Oli Nkwu
TTITLE12=Lijadu Sisters  - Life's Gone Down Low
TTITLE13=Eppi Fanio - Ikoko
TTITLE14=Bongos Ikwue - All Night Long
EXTD=
EXTT0=
EXTT1=
EXTT2=
EXTT3=
EXTT4=
EXTT5=
EXTT6=
EXTT7=
EXTT8=
EXTT9=
EXTT10=
EXTT11=
EXTT12=
EXTT13=
EXTT14=
PLAYORDER=
